<svg  viewBox="0 0 65 65" fill="none" xmlns="http://www.w3.org/2000/svg">
<path d="M54.7315 14.196L31.3873 0.717038C30.5702 0.247241 29.6441 0 28.7016 0C27.7591 0 26.833 0.247241 26.0159 0.717038L2.68568 14.196C1.87021 14.6684 1.19299 15.3466 0.721701 16.1627C0.250412 16.9789 0.00156525 17.9044 0 18.8469V34.1536C0 34.2462 0 34.3415 0 34.434V47.0495C0.000846084 47.5792 0.140544 48.0995 0.405184 48.5585C0.669825 49.0174 1.05016 49.399 1.50825 49.6651L1.87829 49.8781C2.13313 50.0987 2.40816 50.2949 2.69971 50.4641L26.0411 63.9402C26.8582 64.4102 27.7842 64.6576 28.7268 64.6576C29.6694 64.6576 30.5955 64.4102 31.4125 63.9402L54.7315 50.4388C55.5474 49.9661 56.2249 49.2875 56.6962 48.4708C57.1675 47.6541 57.4161 46.728 57.4172 45.7851V18.8329C57.4132 17.8928 57.1632 16.9701 56.692 16.1567C56.2208 15.3432 55.5449 14.6672 54.7315 14.196ZM56.1332 18.8469V29.8335L48.2444 25.2275C44.1177 22.7044 41.1629 24.4678 40.8797 24.65L32.1414 29.8139L31.9367 29.9289C30.1958 30.6269 29.3127 29.4719 29.2455 28.9813C29.2455 28.9813 29.2455 28.9561 29.2455 28.9393V19.8477C29.2455 19.744 29.2455 17.2769 32.1751 15.5921L43.414 9.14417L54.0979 15.3117C54.7144 15.6706 55.2265 16.1842 55.5835 16.8018C55.9405 17.4194 56.13 18.1195 56.1332 18.8329V18.8469ZM30.3837 34.1004C29.8555 33.8665 29.2673 33.8037 28.7016 33.921C28.338 33.999 28.0073 34.1869 27.754 34.4592C27.754 34.4424 27.7288 34.3583 27.7064 34.2574V34.2265C27.6615 34.0443 27.6082 33.8172 27.597 33.7836C27.426 33.1949 27.3643 32.6202 26.3691 31.8212C27.6167 31.2605 27.9559 31.1203 28.5474 30.2344C28.9146 30.5849 29.3632 31.039 30.7257 31.2661C29.8762 32.4576 30.2267 33.2593 30.3837 34.1004ZM13.0528 54.8234L2.62401 48.7988C2.20431 48.4168 1.86885 47.9515 1.63908 47.4326C1.40931 46.9137 1.29028 46.3526 1.28957 45.7851V34.1957C1.32374 33.9336 1.41727 33.6827 1.56301 33.4621C1.70875 33.2416 1.90286 33.0572 2.13061 32.9229L13.0416 26.6208C13.3052 26.4697 13.604 26.3904 13.9079 26.3909C14.2109 26.3901 14.5088 26.4694 14.7713 26.6208L16.4309 27.5852L16.501 27.6272L25.3571 32.7715C26.4336 33.593 26.5514 34.9162 26.5514 35.4516V47.0242C26.5508 47.3278 26.4704 47.6258 26.3184 47.8886C26.1664 48.1513 25.948 48.3695 25.6851 48.5213L14.7741 54.8234C14.5114 54.9715 14.215 55.0493 13.9135 55.0493C13.6119 55.0493 13.3155 54.9715 13.0528 54.8234ZM26.6747 1.82159C27.2954 1.46522 27.9985 1.2777 28.7142 1.2777C29.4299 1.2777 30.1331 1.46522 30.7537 1.82159L42.116 8.38444L31.5303 14.4763C27.9811 16.5172 27.9531 19.6234 27.9559 19.8701V28.9841C27.555 30.4755 25.4917 30.9465 24.9506 31.0418L17.4009 26.6516C17.3168 26.6096 17.2327 26.5619 17.1542 26.5143L17.101 26.4834C14.2807 24.8014 14.4966 21.3083 14.5078 21.1569V21.1261L14.3452 8.94513L26.6747 1.82159ZM3.33049 15.2977L13.0668 9.67683L13.2182 21.0812C13.1638 22.4759 13.4658 23.8614 14.0957 25.107C13.5082 25.0731 12.9236 25.2114 12.4136 25.505L1.49983 31.8044C1.42975 31.8464 1.36247 31.8913 1.29519 31.9361V18.8329C1.296 18.1171 1.48433 17.4141 1.84143 16.7939C2.19854 16.1736 2.71194 15.6578 3.33049 15.2977ZM30.7537 62.7964C30.1336 63.1544 29.4302 63.3429 28.7142 63.3429C27.9982 63.3429 27.2948 63.1544 26.6747 62.7964L15.0881 56.1074C15.2056 56.0587 15.3198 56.0025 15.4301 55.9392L26.3439 49.6398C26.802 49.3737 27.1823 48.9922 27.447 48.5332C27.7116 48.0743 27.8513 47.554 27.8522 47.0242V36.7132C27.911 35.8273 28.1942 35.0311 28.9091 34.8237C29.6239 34.6162 30.4229 35.0844 30.7313 35.2666L31.2275 35.547L32.2143 36.1076L42.73 42.0593C44.6335 43.2256 44.9727 44.1872 44.9727 46.3122L44.9924 54.5823L30.7537 62.7964ZM54.0979 49.3203L46.282 53.8338L46.2652 46.3037C46.2652 43.9152 45.8194 42.4294 43.3944 40.9464L32.0713 34.5405C31.756 34.3208 31.5114 34.0139 31.3675 33.6575C31.2236 33.301 31.1867 32.9104 31.2611 32.5333C31.3705 31.8268 32.1246 31.353 32.1975 31.2745L33.1142 30.7138L41.5526 25.7293L41.5778 25.7153C41.6787 25.648 44.0588 24.1594 47.5884 26.3096L56.1389 31.3026V45.7739C56.14 46.4922 55.952 47.1981 55.5937 47.8206C55.2354 48.4432 54.7196 48.9604 54.0979 49.3203Z" fill="white"/>
<path d="M8.03906 40.2677C8.03906 36.8895 10.6407 34.3328 14.0637 34.3328C15.1573 34.306 16.2364 34.5869 17.1782 35.1435C18.1199 35.7001 18.8864 36.5101 19.3902 37.4811L17.1979 38.6697C16.9279 38.0671 16.4883 37.5561 15.9327 37.1992C15.3771 36.8422 14.7296 36.6548 14.0693 36.6597C12.0396 36.6597 10.6014 38.2352 10.6014 40.2677C10.6014 42.3002 12.0396 43.8757 14.0693 43.8757C14.7296 43.8806 15.3771 43.6932 15.9327 43.3362C16.4883 42.9793 16.9279 42.4683 17.1979 41.8657L19.3902 43.0515C18.887 44.0232 18.1208 44.8339 17.179 45.3911C16.2371 45.9483 15.1576 46.2295 14.0637 46.2026C10.6407 46.2026 8.03906 43.6458 8.03906 40.2677Z" fill="#F9B02E"/>
</svg>
