<svg xmlns="http://www.w3.org/2000/svg" width="125" height="67" viewBox="0 0 125 67" fill="none">
  <path d="M21.9705 23.059C21.6883 23.0993 21.3658 23.5427 20.9627 24.4699C20.5596 25.3971 19.9146 26.4452 19.0277 27.6546C18.1408 28.864 16.8911 29.7106 15.3592 30.2347C13.787 30.7184 12.1745 30.9603 10.4813 30.92C8.78821 30.8797 7.94164 30.0734 7.94164 28.5415V16.488H17.5361V15.1576H7.94164V6.77256C7.94164 3.87004 8.34477 2.45909 9.11071 2.45909H14.3514C17.4958 2.86222 19.3502 4.63598 19.9146 7.8207L19.9952 8.22383H20.5596C20.9224 5.3213 20.8014 2.8219 20.1564 0.765945H0.604693C3.30566 1.53189 4.63598 2.78159 4.63598 4.51504V25.8809C4.63598 29.8315 3.06378 31.8069 0 31.7665H20.8821C21.4465 28.9043 21.8899 26.9693 22.1721 25.9212C22.4946 24.873 22.5752 24.1474 22.4946 23.704C22.414 23.2605 22.2124 23.0187 21.9705 23.059Z" fill="white"/>
  <path d="M39.8292 5.76474L34.0242 21.9302L29.2673 4.91817L24.7119 0.120939L33.2986 32.089V32.1294L42.0465 5.72443C43.3768 1.97533 44.7474 0.0806258 46.1584 0H38.6602C40.7968 0.0403129 41.1596 1.97533 39.8292 5.76474Z" fill="white"/>
  <path d="M70.1446 23.059C69.9027 23.0993 69.5399 23.5427 69.1367 24.4699C68.7336 25.3971 68.0886 26.4452 67.2017 27.6546C66.3148 28.864 65.0651 29.7106 63.5333 30.2347C61.9611 30.7184 60.3485 30.9603 58.6554 30.92C56.9623 30.8797 56.1157 30.0734 56.1157 28.5415V16.488H65.7101V15.1576H56.1157V6.77256C56.1157 3.87004 56.5188 2.45909 57.2848 2.45909H62.5254C65.6698 2.86221 67.5242 4.63598 68.0886 7.8207L68.1692 8.22383H68.7336C69.0964 5.3213 68.9352 2.8219 68.3305 0.765945H48.7787C51.4797 1.53189 52.81 2.78159 52.81 4.51504V25.8809C52.81 29.8718 51.2781 31.8472 48.2144 31.8069H69.0964C69.6608 28.9446 70.1043 27.0096 70.3864 25.9615C70.7089 24.9134 70.8299 24.1877 70.7089 23.7443C70.588 23.2605 70.4268 23.0187 70.1446 23.059Z" fill="white"/>
  <path d="M93.687 3.22503V24.5909L78.2472 0.443441H76.5541H76.5138H72.4019C74.9819 1.16907 76.3122 2.62034 76.4735 4.87786V31.6859H77.6828V6.93382C77.7232 5.92599 78.2069 6.08724 79.1744 7.45788L94.5739 31.9278V3.1444C94.5739 1.85439 95.3802 1.2497 96.9524 1.29001V0.483754H91.107C92.8405 0.927196 93.687 1.85439 93.687 3.22503Z" fill="white"/>
  <path d="M109.611 1.93502C110.901 1.93502 111.546 2.45908 111.546 3.58785V31.7262L114.771 27.0903V3.50722C114.811 2.58002 115.174 2.05596 115.819 1.93502C120.334 1.93502 123.237 3.99097 124.486 8.18351L123.599 2.01564C123.599 1.00782 123.196 0.524067 122.35 0.524067H104.007C103.08 0.524067 102.596 1.00782 102.596 2.01564L101.709 8.26414C102.959 4.03129 105.62 1.93502 109.611 1.93502Z" fill="white"/>
  <path d="M68.6126 33.8628H50.6733C49.7461 33.8628 49.3027 34.3063 49.2624 35.1931L48.3755 40.716C49.6252 37.0072 52.2052 35.1528 56.1156 35.1528C57.4056 35.1528 58.0103 35.6366 58.0103 36.6041V61.4771L61.195 57.4055V36.5235C61.2353 35.6769 61.5578 35.2335 62.2028 35.1125C66.6372 35.1125 69.4591 36.9669 70.7088 40.6354L69.8219 35.1528C69.8219 34.3063 69.4188 33.8628 68.6126 33.8628Z" fill="white"/>
  <path d="M96.4685 53.7774C96.2267 53.7774 95.9042 54.2208 95.5413 55.0271C95.1785 55.8333 94.5335 56.7605 93.7273 57.849C92.8807 58.9374 91.7519 59.6631 90.2603 60.1468C88.8091 60.5903 87.2772 60.7918 85.705 60.7515C84.1328 60.7112 83.3265 59.9856 83.3265 58.6149V47.9723H92.3163V46.8033H83.3265V39.3857C83.3265 36.846 83.6893 35.556 84.415 35.556H89.3332C92.276 35.9188 94.0498 37.491 94.5738 40.2726L94.6545 40.6354H95.1785C95.501 38.0554 95.3801 35.8785 94.8157 34.0644H76.3927C78.8921 34.7497 80.1821 35.8381 80.1821 37.37V56.2365C80.1821 59.784 78.7309 61.5175 75.8687 61.5175H95.501C96.0251 58.9777 96.4282 57.2443 96.7104 56.3171C96.9926 55.3899 97.1135 54.7449 96.9926 54.3418C96.8717 53.9789 96.7104 53.7774 96.4685 53.7774Z" fill="white"/>
  <path d="M122.47 56.8815C121.906 57.9296 121.019 58.7762 119.85 59.4212C118.681 60.0662 117.472 60.3887 116.222 60.3887C114.529 60.3887 113.198 60.1871 112.191 59.8243C111.062 59.3809 109.973 58.5746 108.885 57.4055C106.708 55.0674 105.62 51.802 105.62 47.6498C105.62 43.8604 106.627 40.6757 108.683 38.1763C110.497 35.9591 112.956 34.8303 115.98 34.8303C118.358 34.8303 120.172 35.1931 121.382 35.9188C122.228 36.6041 122.833 37.3297 123.196 38.0957L123.68 34.1853C123.277 33.8225 122.39 33.5403 121.059 33.3791C119.931 33.2581 118.681 33.1775 117.31 33.1775C113.642 33.1775 110.659 34.0644 108.361 35.8785C106.587 37.2491 105.257 38.9422 104.37 40.9579C103.281 43.4573 102.757 45.9164 102.757 48.3755C102.757 52.8099 103.685 56.1558 105.579 58.3327C106.708 59.6631 107.917 60.5499 109.086 61.074C110.256 61.5578 111.868 61.7996 113.884 61.7996C116.262 61.7996 118.237 61.4368 119.769 60.7918C121.745 59.9453 123.196 58.9777 124.043 57.849C123.559 56.4783 123.277 55.4705 123.115 54.9061C123.035 55.5915 122.793 56.2768 122.47 56.8815Z" fill="white"/>
  <path d="M23.9053 57.204C14.2706 55.9946 7.73987 50.4314 4.99859 39.8291C4.91797 39.5872 4.79703 39.3454 4.55515 38.7407C4.15202 52.6889 10.5618 64.5409 18.1003 67.0403C15.8831 64.5812 13.5852 62.3237 13.424 59.0584C17.294 59.8646 21.0028 61.1546 24.7519 61.2756C30.9601 61.4771 37.2086 60.9531 43.4168 60.7112C43.4571 60.6306 43.5377 60.5499 43.578 60.4693C40.232 59.5824 36.8861 58.4537 33.4998 57.8893C30.3151 57.3249 27.09 57.6071 23.9053 57.204Z" fill="url(#paint0_linear_8490_1130)"/>
  <path d="M35.0721 34.4272C37.249 36.8057 39.5065 39.0229 39.6275 42.4091C36.2009 41.5626 33.0162 40.1919 29.7508 40.1113C23.0589 39.9097 16.3669 40.3935 10.0781 40.5548C14.19 43.1751 19.1485 43.4573 24.1876 43.8604C28.2592 44.1829 32.4921 44.707 36.3218 46.2389C42.8928 48.8592 46.521 54.7852 48.335 62.2028C48.8591 47.4079 41.5625 36.1607 35.0721 34.4272Z" fill="url(#paint1_linear_8490_1130)"/>
  <defs>
    <linearGradient id="paint0_linear_8490_1130" x1="4.53056" y1="52.8596" x2="43.5714" y2="52.8596" gradientUnits="userSpaceOnUse">
      <stop stop-color="#71130E"/>
      <stop offset="1" stop-color="#71130E"/>
    </linearGradient>
    <linearGradient id="paint1_linear_8490_1130" x1="10.097" y1="48.316" x2="48.3915" y2="48.316" gradientUnits="userSpaceOnUse">
      <stop stop-color="#71130E"/>
      <stop offset="1" stop-color="#71130E"/>
    </linearGradient>
  </defs>
</svg>